<svg xmlns="http://www.w3.org/2000/svg" width="20" height="26" viewBox="0 0 20 26">
  <defs>
    <style>
      .cls-1 {
        fill: #acacac;
        fill-rule: evenodd;
      }
    </style>
  </defs>
  <path id="ico_Followin" class="cls-1" d="M289,665.716c2.923,0,5.294-2.847,5.294-6.358S293.515,653,289,653s-5.294,2.847-5.294,6.358S286.076,665.716,289,665.716Zm-10,9.707c0-.214,0-0.06,0,0h0Zm20,0.168c0-.059,0-0.407,0,0h0Zm-0.011-.424c-0.1-6.117-.906-7.86-7.089-8.964a4.378,4.378,0,0,1-5.8,0c-6.116,1.092-6.973,2.809-7.085,8.765a1.265,1.265,0,0,1-.016.455c0,0.106,0,.3,0,0.643,0,0,1.472,2.934,10,2.934s10-2.934,10-2.934v-0.475C299,675.626,298.993,675.558,298.987,675.167Z" transform="translate(-279 -653)"/>
</svg>
