<svg id="message" xmlns="http://www.w3.org/2000/svg" width="33" height="24" viewBox="0 0 33 24">
  <defs>
    <style>
      .cls-1 {
        fill: #36373c;
        fill-rule: evenodd;
      }
    </style>
  </defs>
  <path id="ico_message" class="cls-1" d="M2038.42,212.161l-11.68,10.187a2.37,2.37,0,0,0,1.63.652h28.26a2.327,2.327,0,0,0,1.62-.652l-11.67-10.187-4.08,3.639ZM2056.63,199h-28.26a2.325,2.325,0,0,0-1.62.655L2042.5,213.4l15.75-13.75A2.33,2.33,0,0,0,2056.63,199ZM2026,221.045l11.39-9.855L2026,201.107v19.938Zm33,0V201.1l-11.39,10.09Z" transform="translate(-2026 -199)"/>
</svg>
