<svg xmlns="http://www.w3.org/2000/svg" width="26.125" height="25.032" viewBox="0 0 26.125 25.032">
  <defs>
    <style>
      .cls-1 {
        fill: #aca29f;
        fill-rule: evenodd;
      }
    </style>
  </defs>
  <path id="ico_top50" class="cls-1" d="M304.111,485.377a1.875,1.875,0,0,0-1.038-3.2l-6.321-.919a0.83,0.83,0,0,1-.623-0.453l-2.825-5.735a1.871,1.871,0,0,0-3.358,0l-2.827,5.735a0.824,0.824,0,0,1-.622.453l-6.322.92a1.876,1.876,0,0,0-1.038,3.2l4.574,4.463a0.83,0.83,0,0,1,.238.733l-1.079,6.3a1.838,1.838,0,0,0,.409,1.52,1.888,1.888,0,0,0,2.308.456l5.653-2.976a0.844,0.844,0,0,1,.769,0l5.654,2.976a1.851,1.851,0,0,0,.871.219,1.874,1.874,0,0,0,1.436-.675,1.835,1.835,0,0,0,.408-1.52l-1.079-6.3a0.83,0.83,0,0,1,.238-0.733Z" transform="translate(-278.563 -474.031)"/>
</svg>
