<svg id="upload" xmlns="http://www.w3.org/2000/svg" width="39" height="28" viewBox="0 0 39 28">
  <defs>
    <style>
      .cls-1 {
        fill: #36373c;
        fill-rule: evenodd;
      }
    </style>
  </defs>
  <path id="ico_upload" class="cls-1" d="M1963.47,225h-8.36v-8.343h2.76a0.851,0.851,0,0,0,.7-1.352l-5.38-7.344a0.859,0.859,0,0,0-1.39,0l-5.38,7.344a0.851,0.851,0,0,0,.7,1.352h2.77V225h-9.38a8.311,8.311,0,0,1-7.51-8.272,7.818,7.818,0,0,1,3.94-6.762,5.084,5.084,0,0,1-.33-1.832,5.412,5.412,0,0,1,7.25-5.009,10.85,10.85,0,0,1,20.55,3.523A9.267,9.267,0,0,1,1963.47,225Z" transform="translate(-1933 -197)"/>
</svg>
